<svg width="218" height="218" viewBox="0 0 218 218" fill="none" xmlns="http://www.w3.org/2000/svg">
<g filter="url(#filter0_d)">
<rect width="217" height="208" rx="42" fill="#38B2AC"/>
</g>
<path d="M131.016 158C130.078 156.125 129.316 152.785 128.73 147.98C121.172 155.832 112.148 159.758 101.66 159.758C92.2852 159.758 84.5801 157.121 78.5449 151.848C72.5684 146.516 69.5801 139.777 69.5801 131.633C69.5801 121.73 73.3301 114.055 80.8301 108.605C88.3887 103.098 98.9941 100.344 112.646 100.344H128.467V92.873C128.467 87.1895 126.768 82.6777 123.369 79.3379C119.971 75.9395 114.961 74.2402 108.34 74.2402C102.539 74.2402 97.6758 75.7051 93.75 78.6348C89.8242 81.5645 87.8613 85.1094 87.8613 89.2695H71.5137C71.5137 84.5234 73.1836 79.9531 76.5234 75.5586C79.9219 71.1055 84.4922 67.5898 90.2344 65.0117C96.0352 62.4336 102.393 61.1445 109.307 61.1445C120.264 61.1445 128.848 63.8984 135.059 69.4062C141.27 74.8555 144.492 82.3848 144.727 91.9941V135.764C144.727 144.494 145.84 151.438 148.066 156.594V158H131.016ZM104.033 145.607C109.131 145.607 113.965 144.289 118.535 141.652C123.105 139.016 126.416 135.588 128.467 131.369V111.857H115.723C95.8008 111.857 85.8398 117.688 85.8398 129.348C85.8398 134.445 87.5391 138.43 90.9375 141.301C94.3359 144.172 98.7012 145.607 104.033 145.607Z" fill="#EEEEEE"/>
<defs>
<filter id="filter0_d" x="0" y="0" width="217" height="218" filterUnits="userSpaceOnUse" color-interpolation-filters="sRGB">
<feFlood flood-opacity="0" result="BackgroundImageFix"/>
<feColorMatrix in="SourceAlpha" type="matrix" values="0 0 0 0 0 0 0 0 0 0 0 0 0 0 0 0 0 0 127 0"/>
<feOffset dy="10"/>
<feColorMatrix type="matrix" values="0 0 0 0 0 0 0 0 0 0 0 0 0 0 0 0 0 0 0.3 0"/>
<feBlend mode="normal" in2="BackgroundImageFix" result="effect1_dropShadow"/>
<feBlend mode="normal" in="SourceGraphic" in2="effect1_dropShadow" result="shape"/>
</filter>
</defs>
</svg>
