<svg width="150" height="150" viewBox="0 0 150 150" fill="none" xmlns="http://www.w3.org/2000/svg">
<mask id="mask0" mask-type="alpha" maskUnits="userSpaceOnUse" x="0" y="0" width="150" height="150">
<rect width="150" height="150" rx="32" fill="#C4C4C4"/>
</mask>
<g mask="url(#mask0)">
<path d="M150 131.5C112 134.5 46.5 94 0 115V147.5L27 150C45 150 116 151 127 150.5C138 150 150 150 150 131.5Z" fill="#B98B46"/>
<path d="M150 56C128 70.5 76 82 0 41.5V0H27C56.5 32.5 123 58.5 150 25.5V56Z" fill="#4F46B9"/>
<path d="M150 131.5V127C131 131.833 64.186 143 0 147V150C42.2713 150 84.7892 151.919 127 150H150V131.5Z" fill="#B95446"/>
<path d="M0 115V130.5C38.4094 134.5 78.6667 125.57 93 120.605C61.7785 111.707 27.5536 102.556 0 115Z" fill="#B7B946"/>
<path d="M150 131.5C112 134.5 46.5 94 0 115V94C54 76 106.5 96 150 88V131.5Z" fill="#46B95F"/>
<path d="M150 56C128 70.5 76 82 0 41.5V67.75V94C54 76 106.5 96 150 88V72V56Z" fill="#4690B9"/>
<path d="M150 25.5C123 58.5 56.5 32.5 27 0H110.5H150V25.5Z" fill="#9446B9"/>
</g>
</svg>
